HIERARCHY
ROOT hip
{
	OFFSET 0.000000 0.000000 0.000000 
	CHANNELS 6 Xposition Yposition Zposition Xrotation Zrotation Yrotation
	JOINT abdomen
	{
		OFFSET 0.000000 3.402643 0.000000 
		CHANNELS 3 Xrotation Zrotation Yrotation
		JOINT chest
		{
			OFFSET 0.000000 8.438565 -0.680529 
			CHANNELS 3 Xrotation Zrotation Yrotation
			JOINT neck
			{
				OFFSET 0.000000 10.207942 -0.272212 
				CHANNELS 3 Xrotation Zrotation Yrotation
				JOINT head
				{
					OFFSET 0.000000 3.130431 0.000000 
					CHANNELS 3 Xrotation Zrotation Yrotation
					End Site
					{
						OFFSET 0.000000 3.130435 0.000000 
					}
				}
			}
			JOINT lCollar
			{
				OFFSET 3.470700 6.669187 -0.816635 
				CHANNELS 3 Yrotation Zrotation Xrotation
				JOINT lShldr
				{
					OFFSET 3.198488 0.000000 0.000000 
					CHANNELS 3 Zrotation Yrotation Xrotation
					JOINT lForeArm
					{
						OFFSET 10.139888 0.000000 0.000000 
						CHANNELS 3 Yrotation Zrotation Xrotation
						JOINT lHand
						{
							OFFSET 8.370511 0.000000 0.000000 
							CHANNELS 3 Zrotation Yrotation Xrotation
							End Site
							{
								OFFSET 4.083176 0.000000 0.000000 
							}
						}
					}
				}
			}
			JOINT rCollar
			{
				OFFSET -3.470700 6.669187 -0.816635 
				CHANNELS 3 Yrotation Zrotation Xrotation
				JOINT rShldr
				{
					OFFSET -3.198488 0.000000 0.000000 
					CHANNELS 3 Zrotation Yrotation Xrotation
					JOINT rForeArm
					{
						OFFSET -10.139888 0.000000 0.000000 
						CHANNELS 3 Yrotation Zrotation Xrotation
						JOINT rHand
						{
							OFFSET -8.370511 0.000000 0.000000 
							CHANNELS 3 Zrotation Yrotation Xrotation
							End Site
							{
								OFFSET -4.083176 0.000000 0.000000 
							}
						}
					}
				}
			}
		}
	}
	JOINT lThigh
	{
		OFFSET 5.308129 -1.633274 1.361059 
		CHANNELS 3 Xrotation Zrotation Yrotation
		JOINT lShin
		{
			OFFSET -2.041588 -20.007561 0.000000 
			CHANNELS 3 Xrotation Zrotation Yrotation
			JOINT lFoot
			{
				OFFSET 0.000000 -19.190928 -1.224953 
				CHANNELS 3 Xrotation Yrotation Zrotation
				End Site
				{
					OFFSET 0.000000 -2.449906 4.627600 
				}
			}
		}
	}
	JOINT rThigh
	{
		OFFSET -5.308129 -1.633274 1.361059 
		CHANNELS 3 Xrotation Zrotation Yrotation
		JOINT rShin
		{
			OFFSET 2.041588 -20.007561 0.000000 
			CHANNELS 3 Xrotation Zrotation Yrotation
			JOINT rFoot
			{
				OFFSET 0.000000 -19.190928 -1.224953 
				CHANNELS 3 Xrotation Yrotation Zrotation
				End Site
				{
					OFFSET 0.000000 -2.449906 4.627600 
				}
			}
		}
	}
}
MOTION
Frames: 10
Frame Time: 0.033333
0.077449 52.293392 0.547599 2.109375 -1.054681 0.458808 26.187294 -14.877491 -3.974294 -9.648438 12.714844 3.439649 51.063168 8.107644 2.471410 -71.123047 4.111328 -4.393831 2.000000 -2.000000 0.000000 -77.890625 21.523438 -9.918292 -60.075531 -1.672977 -2.236279 9.866837 38.321777 7.951656 -2.000000 2.000000 0.000000 77.705078 -21.982422 -8.242187 74.091049 0.778656 -2.670079 -57.392803 -58.549927 48.926800 -4.968434 9.506581 3.640346 21.068419 -4.954405 -1.995669 -7.001596 -5.842034 -3.094868 -16.336771 -17.234047 -17.294022 43.251331 3.622911 3.510820 6.984244 -15.612955 6.241824 
0.154910 52.300880 1.095185 2.109375 -1.230461 0.800577 27.301435 -14.653056 -4.375066 -10.019531 12.578127 3.486328 51.063168 8.107644 2.471410 -70.644531 3.417969 -4.472075 2.000000 -2.000000 0.000000 -77.783203 21.923830 -10.888672 -60.411774 -1.163648 -2.393311 11.970039 38.256523 10.667428 -2.000000 2.000000 0.000000 77.490234 -22.470703 -8.138495 74.091049 0.778656 -2.670079 -57.477245 -58.053829 48.015415 -3.951928 9.513000 3.722924 20.367474 -4.902352 -1.919011 -7.514890 -5.965617 -2.723840 -17.021076 -16.327398 -15.907249 37.948528 3.496050 3.027198 4.920881 -13.465133 6.887483 
0.011484 52.315502 1.717676 1.933594 -1.425781 1.152101 27.730326 -14.618698 -4.800245 -10.205078 12.421876 3.390772 51.063168 8.107644 2.471410 -69.794922 2.851562 -4.785157 2.000000 -2.000000 0.000000 -78.369141 21.738283 -12.760055 -60.413227 -1.293789 -2.444411 13.082156 38.026226 12.011334 -2.000000 2.000000 0.000000 77.304688 -23.144533 -8.792901 73.918106 0.950613 -2.767827 -58.076797 -57.535690 47.965809 -2.732767 9.865794 3.094198 19.307505 -4.992395 -1.884367 -7.543384 -5.617780 -2.695070 -15.711866 -14.998336 -13.898075 28.483154 4.471998 2.372619 5.538105 -11.780270 7.478333 
-0.339733 52.364811 2.405164 1.757813 -1.767578 1.513672 27.365820 -14.883812 -4.709429 -10.019531 12.412110 3.251953 51.063168 8.107644 2.471410 -68.603523 2.265625 -5.068359 2.000000 -2.000000 0.000000 -78.935547 21.562500 -13.570630 -60.594692 -1.334028 -2.295166 13.376820 38.176628 12.512757 -2.000000 2.000000 0.000000 77.900391 -23.876951 -10.345748 73.739479 0.788405 -2.669513 -59.814480 -58.098660 49.478725 -1.367162 10.387512 2.838721 18.418531 -4.952924 -1.795027 -7.475423 -5.986828 -2.795317 -13.521231 -13.333606 -12.183993 18.246819 4.940182 1.253288 6.401176 -9.920674 7.960655 
-0.733318 52.395050 3.097467 1.572266 -1.943359 1.679688 26.668634 -15.326301 -4.646471 -9.873047 12.226564 3.046875 51.063168 8.107644 2.471410 -67.216797 1.992187 -5.839845 2.000000 -2.000000 0.000000 -79.687500 21.572264 -13.535156 -60.244263 -1.483102 -2.335614 12.296952 38.192101 11.964529 -2.000000 2.000000 0.000000 78.945313 -24.990232 -12.767797 73.573174 0.807338 -2.658637 -61.916336 -58.476944 51.698151 -0.068647 11.198266 2.955820 17.936899 -5.050791 -1.758466 -7.519147 -6.392111 -3.068568 -11.637004 -12.308443 -12.445207 11.374620 5.076976 0.991947 5.114324 -7.807595 7.816012 
-1.161676 52.343857 3.794029 1.406250 -2.119140 2.030889 25.593987 -15.616420 -4.461113 -9.345702 12.011720 2.931720 51.063168 8.107644 2.471410 -65.986328 1.904297 -6.318035 2.000000 -2.000000 0.000000 -79.228516 21.552734 -13.892899 -60.068939 -1.532982 -2.352270 11.244565 38.248180 10.989231 -2.000000 2.000000 0.000000 79.746094 -25.683592 -14.882813 73.221611 0.817087 -2.658072 -64.095291 -59.136620 53.828640 1.298275 11.913463 2.376842 16.684483 -5.089174 -1.639624 -7.140187 -6.356067 -3.487075 -10.750916 -11.580129 -13.100393 12.080125 5.058391 1.214971 4.605817 -7.612557 7.849569 
-1.617186 52.295681 4.494338 1.230469 -2.285156 2.382423 24.491772 -15.746275 -4.199724 -8.828124 11.796876 2.804731 51.063168 8.107644 2.471410 -65.292969 1.855469 -6.825856 2.000000 -2.000000 0.000000 -78.457031 22.294922 -12.349810 -59.901901 -1.501466 -2.314733 12.315888 38.641605 10.580258 -2.000000 2.000000 0.000000 80.390625 -26.406250 -16.416018 73.045273 0.825705 -2.638015 -65.876152 -59.628807 54.982655 2.507251 12.570208 2.159203 15.999030 -5.088486 -1.582404 -7.043355 -6.662730 -3.693842 -9.921219 -11.092460 -14.041439 12.417188 5.076102 1.049233 4.326458 -7.078018 7.265057 
-2.092265 52.265141 5.197856 1.044922 -2.470703 2.733954 23.020300 -15.233539 -4.003857 -7.919922 11.884767 3.046875 51.063168 8.107644 2.471410 -64.921875 1.816406 -6.992187 2.000000 -2.000000 0.000000 -78.154297 23.085939 -10.962966 -59.726116 -1.501465 -2.314733 14.024937 39.132938 10.215088 -2.000000 2.000000 0.000000 80.390625 -26.962891 -15.927736 73.046059 0.856650 -2.665555 -66.371696 -60.609951 53.600754 4.041390 13.405391 1.809251 15.307188 -5.098272 -1.535389 -6.747210 -6.868126 -3.870688 -8.826715 -10.680300 -15.198448 12.779023 5.105753 0.585342 3.695453 -6.307842 7.059870 
-2.579273 52.245956 5.904044 1.054688 -2.636710 3.085498 21.367071 -14.544283 -3.744965 -6.669923 11.748047 3.300781 51.063168 8.107644 2.471410 -65.292969 1.855469 -7.011403 2.000000 -2.000000 0.000000 -78.125000 23.798828 -10.009765 -59.534489 -1.372349 -2.449620 14.369033 39.509003 9.506610 -2.000000 2.000000 0.000000 79.785156 -26.943359 -14.462890 72.693703 0.835454 -2.637449 -65.688347 -61.259659 50.713570 5.182505 14.349850 1.631587 15.320797 -5.216790 -1.520696 -7.310886 -7.061511 -4.557209 -7.839860 -10.355716 -17.070837 13.306693 5.027748 1.137692 3.084169 -5.551425 6.350610 
-3.070644 52.168797 6.612421 0.869141 -2.832031 3.261719 20.088158 -13.843273 -3.550048 -5.585938 11.796876 3.583984 51.063168 8.107644 2.471410 -65.791016 2.060547 -7.070312 2.000000 -2.000000 0.000000 -78.867188 24.306641 -10.595702 -59.366379 -1.680920 -2.373000 12.212337 39.167747 9.191751 -2.000000 2.000000 0.000000 79.375000 -26.748049 -13.402832 72.861526 0.936906 -2.700172 -64.726448 -61.687557 48.535294 6.199299 15.043147 1.294987 14.955010 -5.192841 -1.545889 -6.539575 -7.205164 -4.507397 -6.639865 -9.850473 -18.031101 13.669548 5.018538 1.341864 2.602138 -5.163623 5.925040 
